<svg width="16" height="16" viewBox="0 0 16 16" fill="none" xmlns="http://www.w3.org/2000/svg">
<path d="M6.90185 0.909815L6.44695 0L5.99204 0.909815L5.08222 1.02354L5.84101 1.66769L5.53713 2.72944L6.44695 2.12351L7.35676 2.72944L7.05288 1.66769L7.81167 1.02354L6.90185 0.909815ZM14.4842 10.6139L13.7255 9.09815L12.9667 10.6139L11.4509 10.804L12.7147 11.8785L12.2097 13.6472L13.7255 12.6364L15.2412 13.6472L14.7363 11.8785L16 10.804L14.4842 10.6139ZM2.95963 3.03241L2.35278 1.81963L1.74593 3.03241L0.533151 3.18435L1.54396 4.04322L1.14 5.45889L2.35278 4.65006L3.56556 5.45889L3.16161 4.04322L4.17241 3.18435L2.95963 3.03241ZM0 12.7374C0 13.2232 0.189241 13.68 0.533151 14.0239L1.97612 15.4668C2.32003 15.8108 2.77675 16 3.2626 16C3.74844 16 4.20516 15.8108 4.54907 15.4668L15.0902 4.92574C15.4341 4.58183 15.6233 4.1251 15.6233 3.63926C15.6233 3.15342 15.4341 2.69669 15.0902 2.35278L13.6472 0.909815C12.9594 0.221995 11.7621 0.221995 11.0743 0.909815L0.533151 11.4509C0.189241 11.7948 0 12.2516 0 12.7374ZM12.3607 2.19629L13.8037 3.63926L10.5411 6.90185L9.09815 5.45889L12.3607 2.19629Z" fill="white" fill-opacity="0.85"/>
</svg>
