<svg xmlns="http://www.w3.org/2000/svg" xmlns:xlink="http://www.w3.org/1999/xlink" width="60" zoomAndPan="magnify" viewBox="0 0 45 44.999999" height="60" preserveAspectRatio="xMidYMid meet" version="1.0"><defs><clipPath id="97583def86"><path d="M 3.164062 1 L 41.835938 1 L 41.835938 44 L 3.164062 44 Z M 3.164062 1 " clip-rule="nonzero"/></clipPath><clipPath id="a5ea1dc315"><path d="M 26.390625 2.261719 L 37.945312 8.988281 C 40.355469 10.386719 41.835938 12.964844 41.835938 15.75 L 41.835938 29.25 C 41.835938 32.035156 40.355469 34.613281 37.945312 36.011719 L 26.390625 42.738281 C 23.984375 44.136719 21.015625 44.136719 18.609375 42.738281 L 7.054688 36.011719 C 4.644531 34.613281 3.164062 32.035156 3.164062 29.25 L 3.164062 15.75 C 3.164062 12.964844 4.644531 10.386719 7.054688 8.988281 L 18.609375 2.261719 C 21.015625 0.863281 23.984375 0.863281 26.390625 2.261719 " clip-rule="nonzero"/></clipPath></defs><g clip-path="url(#97583def86)"><g clip-path="url(#a5ea1dc315)"><path fill="#767579" d="M 3.164062 0 L 41.835938 0 L 41.835938 45 L 3.164062 45 Z M 3.164062 0 " fill-opacity="1" fill-rule="nonzero"/></g></g></svg>