<svg width="45" height="45" viewBox="0 0 45 45" fill="none" xmlns="http://www.w3.org/2000/svg">
<circle cx="22.5" cy="22.5" r="22.5" fill="white"/>
<path d="M33 13.0101C32.0424 13.6855 30.9821 14.2022 29.86 14.5401C29.2577 13.8476 28.4573 13.3567 27.567 13.134C26.6767 12.9112 25.7395 12.9673 24.8821 13.2945C24.0247 13.6218 23.2884 14.2045 22.773 14.9638C22.2575 15.7231 21.9877 16.6224 22 17.5401V18.5401C20.2426 18.5856 18.5013 18.1959 16.931 17.4055C15.3607 16.6151 14.0103 15.4487 13 14.0101C13 14.0101 9 23.0101 18 27.0101C15.9405 28.408 13.4872 29.109 11 29.0101C20 34.0101 31 29.0101 31 17.5101C30.9991 17.2315 30.9723 16.9537 30.92 16.6801C31.9406 15.6735 32.6608 14.4028 33 13.0101Z" stroke="black" stroke-width="2" stroke-linecap="round" stroke-linejoin="round"/>
</svg>
